<svg width="1439" height="360" viewBox="0 0 1439 360" fill="none" xmlns="http://www.w3.org/2000/svg">
<g clip-path="url(#clip0_985_48)">
<g opacity="0.07">
<path d="M-61.1 641.317L-61.1007 641.316C-121.716 580.701 -121.716 482.424 -61.1007 421.809L220.024 140.685C280.639 80.0693 378.916 80.0693 439.531 140.684L439.532 140.685C500.147 201.3 500.147 299.577 439.532 360.192L158.407 641.317C97.792 701.932 -0.48474 701.932 -61.1 641.317Z" fill="#FFF0EC"/>
<path d="M1002.9 238.317L1002.9 238.316C942.284 177.701 942.284 79.4242 1002.9 18.8089L1284.02 -262.315C1344.64 -322.931 1442.92 -322.931 1503.53 -262.316L1503.53 -262.315C1564.15 -201.7 1564.15 -103.423 1503.53 -42.8076L1222.41 238.317C1161.79 298.932 1063.52 298.932 1002.9 238.317Z" fill="#FFF0EC"/>
</g>
</g>
<defs>
<clipPath id="clip0_985_48">
<rect width="1439" height="360" fill="white"/>
</clipPath>
</defs>
</svg>
