<svg width="98" height="16" viewBox="0 0 98 16" fill="none" xmlns="http://www.w3.org/2000/svg">
<g clip-path="url(#clip0_977_3)">
<path d="M26.6759 11.206V5.70202C26.6759 4.65069 26.9199 3.82202 27.4079 3.21535C27.8966 2.60869 28.5079 2.30535 29.2413 2.30535C30.6799 2.30535 31.3993 3.35669 31.3993 5.45935V11.206H33.9206V4.81935C33.9206 3.20935 33.5873 2.00602 32.9186 1.20802C32.2506 0.410019 31.2966 0.0113524 30.0559 0.0113524C29.2413 0.0113524 28.4959 0.167352 27.8213 0.480019C27.1504 0.788946 26.5647 1.25637 26.1146 1.84202H26.0706C25.4173 0.621352 24.3239 0.0113524 22.7893 0.0113524C22.1433 0.0113524 21.5213 0.156019 20.9233 0.446686C20.3155 0.744871 19.7801 1.17215 19.3546 1.69869H19.3213V0.176686H16.7999V11.1947H19.3213V5.70202C19.3213 4.65069 19.5693 3.82202 20.0646 3.21535C20.5599 2.60869 21.1933 2.30535 21.9639 2.30535C23.4239 2.30535 24.1546 3.35669 24.1546 5.45935V11.206H26.6759ZM40.7433 11.3714C42.2406 11.3714 43.4079 10.82 44.2446 9.71669H44.2779V11.1947H46.6886V0.176686H44.1673V1.50002H44.1233C43.2866 0.507352 42.1533 0.0113524 40.7213 0.0113524C40.0134 0.00632551 39.3121 0.146619 38.6606 0.42355C38.0092 0.700482 37.4215 1.10816 36.9339 1.62135C36.4639 2.12135 36.0939 2.72802 35.8219 3.44135C35.5469 4.1744 35.4088 4.95175 35.4146 5.73469C35.4146 6.57335 35.5499 7.34535 35.8213 8.05135C36.0933 8.75735 36.4639 9.35269 36.9339 9.83802C37.412 10.329 37.9877 10.7141 38.6239 10.9687C39.2974 11.2403 40.0171 11.3771 40.7433 11.3714ZM41.1399 9.07735C40.2073 9.07735 39.4479 8.76669 38.8606 8.14535C38.2739 7.52402 37.9799 6.72402 37.9799 5.74602C37.9799 4.70935 38.2826 3.87669 38.8879 3.24802C39.4939 2.61935 40.2479 2.30535 41.1506 2.30535C42.0459 2.30535 42.7893 2.63402 43.3806 3.29202C43.9713 3.95069 44.2673 4.76869 44.2673 5.74602C44.2673 6.72402 43.9639 7.52402 43.3586 8.14535C42.7526 8.76669 42.0133 9.07735 41.1399 9.07735ZM59.2146 11.206V4.70935C59.2146 3.11402 58.8573 1.93202 58.1413 1.16335C57.4266 0.395352 56.4366 0.0113524 55.1746 0.0113524C54.4726 0.00754917 53.7779 0.154172 53.1373 0.441352C52.5 0.727279 51.9355 1.15344 51.4859 1.68802H51.4526V0.176019H48.9313V11.194H51.4526V5.65802C51.4526 4.59935 51.7113 3.77602 52.2286 3.18735C52.7466 2.59935 53.4379 2.30535 54.3039 2.30535C54.7006 2.30535 55.0399 2.35669 55.3226 2.45935C55.6053 2.56269 55.8533 2.73002 56.0659 2.96135C56.2793 3.19335 56.4366 3.50735 56.5393 3.90469C56.6419 4.30135 56.6933 4.78669 56.6933 5.36002V11.206H59.2146ZM66.0266 11.3714C67.5239 11.3714 68.6906 10.82 69.5279 9.71669H69.5613V11.1947H71.9719V0.176686H69.4506V1.50002H69.4066C68.5699 0.507352 67.4359 0.0113524 66.0046 0.0113524C65.2966 0.0062341 64.5952 0.146483 63.9436 0.423417C63.292 0.700351 62.7042 1.10808 62.2166 1.62135C61.7473 2.12135 61.3766 2.72802 61.1046 3.44135C60.8297 4.17444 60.6919 4.95179 60.6979 5.73469C60.6979 6.57335 60.8333 7.34535 61.1046 8.05135C61.3766 8.75735 61.7473 9.35269 62.2166 9.83802C62.6948 10.329 63.2708 10.7142 63.9073 10.9687C64.5806 11.2402 65.3006 11.377 66.0266 11.3714ZM66.4226 9.07735C65.4906 9.07735 64.7306 8.76669 64.1439 8.14535C63.5566 7.52402 63.2626 6.72402 63.2626 5.74602C63.2626 4.70935 63.5659 3.87669 64.1713 3.24802C64.7766 2.61935 65.5313 2.30535 66.4339 2.30535C67.3293 2.30535 68.0726 2.63402 68.6633 3.29202C69.2539 3.95069 69.5499 4.76869 69.5499 5.74602C69.5499 6.72402 69.2466 7.52402 68.6413 8.14535C68.0359 8.76669 67.2959 9.07735 66.4226 9.07735ZM79.1359 15.8274C79.9359 15.8274 80.6519 15.734 81.2826 15.546C81.9139 15.3587 82.4446 15.0974 82.8739 14.7627C83.3057 14.4255 83.6684 14.008 83.9419 13.5334C84.2278 13.0392 84.4339 12.5031 84.5526 11.9447C84.6779 11.3714 84.7399 10.7427 84.7399 10.0587V0.176686H82.2186V1.33469H82.1746C81.7229 0.902685 81.1896 0.565003 80.6059 0.341352C80.0176 0.114041 79.392 -0.00170975 78.7613 1.90836e-05C77.7559 1.90836e-05 76.8533 0.238686 76.0533 0.716686C75.2533 1.19469 74.6306 1.85869 74.1866 2.70802C73.7426 3.55669 73.5206 4.51135 73.5206 5.57002C73.5206 6.64335 73.7539 7.59535 74.2199 8.42669C74.6859 9.25735 75.3266 9.89535 76.1413 10.34C76.9559 10.7847 77.8733 11.0074 78.8939 11.0074C80.2586 11.0074 81.3713 10.5587 82.2299 9.66202H82.2739V10.8307C82.2739 11.6107 81.9873 12.2574 81.4153 12.772C80.8419 13.2867 80.0353 13.544 78.9926 13.544C78.2806 13.544 77.6553 13.456 77.1153 13.2794C76.5759 13.1027 75.9539 12.8274 75.2493 12.4527L74.6546 14.68C75.2713 15.048 75.9653 15.3307 76.7359 15.5294C77.5066 15.728 78.3066 15.8274 79.1359 15.8274ZM79.2239 8.68069C78.3139 8.68069 77.5633 8.39135 76.9726 7.81402C76.3813 7.23735 76.0859 6.46335 76.0859 5.49269C76.0859 4.55935 76.3759 3.79802 76.9559 3.20935C77.5359 2.62135 78.2919 2.32735 79.2239 2.32735C80.1119 2.32735 80.8519 2.61735 81.4426 3.19869C82.0333 3.77935 82.3293 4.53335 82.3293 5.45935C82.3293 6.39335 82.0406 7.16335 81.4646 7.77002C80.8886 8.37669 80.1413 8.68069 79.2239 8.68069ZM91.9479 11.3714C92.9759 11.3714 93.8806 11.184 94.6619 10.8087C95.4439 10.434 96.0839 9.92669 96.5833 9.28669L94.8219 7.77602C94.1319 8.64335 93.2179 9.07735 92.0799 9.07735C91.2733 9.07735 90.5886 8.85269 90.0266 8.40402C89.4653 7.95602 89.1039 7.34202 88.9419 6.56269H96.9579C97.0019 6.29802 97.0239 5.96269 97.0239 5.55869C97.0239 4.49269 96.8073 3.54069 96.3739 2.70202C95.9536 1.8773 95.3037 1.19176 94.5026 0.728019C93.6879 0.250019 92.7479 0.0113524 91.6839 0.0113524C90.955 0.00589232 90.2324 0.146432 89.5586 0.424686C88.8986 0.700686 88.3293 1.08469 87.8519 1.57735C87.3753 2.07002 87.0006 2.66935 86.7293 3.37469C86.4579 4.08135 86.3219 4.84935 86.3219 5.68002C86.3219 6.80535 86.5679 7.80335 87.0593 8.67469C87.5513 9.54602 88.2233 10.2134 89.0746 10.6767C89.9259 11.14 90.8839 11.3714 91.9479 11.3714ZM94.4913 4.52202H88.9866C89.1626 3.81602 89.5039 3.27002 90.0099 2.88402C90.5166 2.49802 91.1186 2.30535 91.8159 2.30535C92.5206 2.30535 93.1026 2.50402 93.5613 2.90069C94.0199 3.29802 94.3299 3.83802 94.4913 4.52202Z" fill="#242D52"/>
<path fill-rule="evenodd" clip-rule="evenodd" d="M1.85733 6.85733C2.88267 6.85733 3.714 7.71 3.714 8.762C3.714 9.81333 2.88267 10.6667 1.85733 10.6667C0.831333 10.6667 0 9.81333 0 8.762C0 7.71 0.831333 6.85733 1.85733 6.85733ZM1.85733 0C2.88267 0 3.71333 0.853333 3.71333 1.90467C3.71333 2.95667 2.882 3.80933 1.85667 3.80933C0.831333 3.80933 0 2.95667 0 1.90467C0 0.853333 0.831333 0 1.85733 0ZM8.54267 0C9.56867 0 10.4 0.853333 10.4 1.90467C10.4 2.95667 9.56867 3.80933 8.54267 3.80933C7.51733 3.80933 6.686 2.95667 6.686 1.90467C6.686 0.853333 7.51733 0 8.54267 0Z" fill="#F3603C"/>
<path opacity="0.5" d="M8.54264 10.7424C9.56841 10.7424 10.4 9.88969 10.4 8.83777C10.4 7.78585 9.56841 6.93311 8.54264 6.93311C7.51686 6.93311 6.6853 7.78585 6.6853 8.83777C6.6853 9.88969 7.51686 10.7424 8.54264 10.7424Z" fill="#F3603C"/>
</g>
<defs>
<clipPath id="clip0_977_3">
<rect width="97.3333" height="16" fill="white"/>
</clipPath>
</defs>
</svg>
